<svg width="150" height="35" viewBox="0 0 150 35" fill="none" xmlns="http://www.w3.org/2000/svg">
<path fill-rule="evenodd" clip-rule="evenodd" d="M17.4515 20.1647C19.1667 20.1647 22.2481 23.2558 23.062 24.0795C23.9244 24.9419 24.3605 26.2306 23.9244 27.5291C23.314 29.3508 18.314 34.0019 17.4515 34.8643C16.5891 34.0019 11.5795 29.3508 10.969 27.5291C10.5426 26.2306 10.969 24.9419 11.8314 24.0795L12.0155 23.8953C13.0426 22.8779 15.843 20.1647 17.4515 20.1647ZM77.2868 7.70349C81.9089 7.70349 85.7849 11.3081 85.7849 17.4516C85.7849 23.3818 81.8023 27.2093 76.8798 27.2093C74.2345 27.2093 72.2287 26.095 70.8818 24.4186V34.2926H66.1919V8.21705H70.8818V10.8624C72.1124 9.07946 74.4574 7.70349 77.2868 7.70349ZM99.5446 7.70349C104.157 7.70349 108.033 11.3081 108.033 17.4516C108.033 23.3818 104.05 27.2093 99.1279 27.2093C96.4826 27.2093 94.4767 26.095 93.1298 24.4186V34.2926H88.4399V8.21705H93.1298V10.8624C94.3605 9.07946 96.7054 7.70349 99.5446 7.70349ZM51.4922 7.70349C54.438 7.70349 56.1919 8.67248 57.345 10.3101V8.21705H62.0349V26.6957H57.345V24.312C56.2597 26.095 54.4767 27.2093 51.6473 27.2093C46.5795 27.2093 42.6647 23.6047 42.6647 17.4516C42.6647 11.3081 47.1318 7.70349 51.4922 7.70349ZM120.291 7.48062C125.901 7.48062 129.486 11.6182 129.486 16.8217V18.4787H114.99C115.291 21.3372 117.287 23.1395 120.116 23.1395C122.713 23.1395 124.215 21.8314 125.271 19.719L128.924 21.812C127.267 25.2035 124.593 27.2093 119.913 27.2093C114.826 27.2093 110.31 23.2267 110.31 17.345C110.31 11.4729 114.564 7.48062 120.291 7.48062ZM143.469 7.70349C147.461 7.70349 149.952 10.2326 149.952 14.1085V26.6957H145.262V16.0368C145.262 13.624 144.147 12.093 141.502 12.093C139.002 12.093 137.209 14.1764 137.209 17.3062V26.6957H132.519V8.21705H137.209V11.2016C138.595 9.07946 140.785 7.70349 143.469 7.70349ZM27.5484 10.9593C29.3798 11.5698 34.031 16.5698 34.8934 17.4322C34.031 18.2946 29.3798 23.2946 27.5484 23.905C26.2597 24.3411 24.9612 23.905 24.0988 23.0426C23.2849 22.2287 20.1841 19.1473 20.1841 17.4322C20.1841 15.7171 23.2849 12.6357 24.0988 11.8217C24.9612 10.9593 26.2597 10.5233 27.5484 10.9593ZM10.7946 11.8217C11.6085 12.6357 14.6996 15.7171 14.6996 17.4322C14.6996 19.1473 11.6085 22.2287 10.7946 23.0426C9.93217 23.905 8.63372 24.3411 7.33527 23.905C5.51357 23.2946 0.862403 18.2946 0 17.4322C0.862403 16.5698 5.51357 11.5698 7.33527 10.9593C8.63372 10.5233 9.93217 10.9593 10.7946 11.8217ZM57.6453 17.4516C57.6453 14.4864 55.3585 12.093 52.5388 12.093C49.719 12.093 47.4322 14.4864 47.4322 17.4516C47.4322 20.4264 49.719 22.8198 52.5388 22.8198C55.3585 22.8198 57.6453 20.4264 57.6453 17.4516ZM81.0174 17.4516C81.0174 14.4864 78.6822 12.093 75.8043 12.093C72.9167 12.093 70.5814 14.4864 70.5814 17.4516C70.5814 20.4264 72.9167 22.8198 75.8043 22.8198C78.6822 22.8198 81.0174 20.4264 81.0174 17.4516ZM103.265 17.4516C103.265 14.4864 100.93 12.093 98.0523 12.093C95.1647 12.093 92.8295 14.4864 92.8295 17.4516C92.8295 20.4264 95.1647 22.8198 98.0523 22.8198C100.93 22.8198 103.265 20.4264 103.265 17.4516ZM120.116 11.095C117.548 11.095 115.707 12.7907 114.99 15.0097H125.01C124.554 12.5969 122.829 11.095 120.116 11.095ZM17.4515 0C18.314 0.862403 23.314 5.51357 23.9244 7.33527C24.3605 8.63372 23.9244 9.92248 23.062 10.7849C22.2481 11.6085 19.1667 14.6996 17.4515 14.6996C15.7267 14.6996 12.655 11.6085 11.8314 10.7849C10.969 9.92248 10.5426 8.63372 10.969 7.33527C11.5795 5.51357 16.5891 0.862403 17.4515 0Z" fill="#EF4126"/>
</svg>
